{"title":"Honey Moon (2011) 1CD.DVDRip Malayalam Movie (18+) - OP","uid":6800027,"size":1092426459,"categoryP":"video","categoryS":"movies","magnet":"?xt=urn:btih:26e6abed7e5c2f1b15b381053f0b3dacde73dbc2&amp;dn=Honey+Moon+%282011%29+1CD.DVDRip+Malayalam+Movie+%2818%2B%29+-+OP&amp;tr=udp%3A%2F%2Ftracker.openbittorrent.com%3A80&amp;tr=udp%3A%2F%2Fopen.demonii.com%3A1337&amp;tr=udp%3A%2F%2Ftracker.coppersurfer.tk%3A6969&amp;tr=udp%3A%2F%2Fexodus.desync.com%3A6969","seeders":0,"leechers":1,"uploader":"rjaa","files":-1,"time":1320662995,"description":"General:\n\nFormat                           : MPEG-4\nFormat profile                   : Base Media\nCodec ID                         : isom\nFile size                        : i.01 GiB\nDuration                         : 2h 26mn\n\nVideo\nID                               : 1\nFormat                           : AVC\nFormat/Info                      : Advanced Video Codec\nFormat profile                   : &lt;a class=&quot;__cf_email__&quot; href=&quot;/cdn-cgi/l/email-protection&quot; data-cfemail=&quot;2169484649616d130f10&quot;&gt;[email&amp;#160;protected]&lt;/a&gt;&lt;script cf-hash='f9e31' type=&quot;text/javascript&quot;&gt;\n/* &lt;![CDATA[ */!function(){try{var t=&quot;currentScript&quot;in document?document.currentScript:function(){for(var t=document.getElementsByTagName(&quot;script&quot;),e=t.length;e--;)if(t[e].getAttribute(&quot;cf-hash&quot;))return t[e]}();if(t&amp;&amp;t.previousSibling){var e,r,n,i,c=t.previousSibling,a=c.getAttribute(&quot;data-cfemail&quot;);if(a){for(e=&quot;&quot;,r=parseInt(a.substr(0,2),16),n=2;a.length-n;n+=2)i=parseInt(a.substr(n,2),16)^r,e+=String.fromCharCode(i);e=document.createTextNode(e),c.parentNode.replaceChild(e,c)}}}catch(u){}}();/* ]]&gt; */&lt;/script&gt;\nFormat settings, CABAC           : Yes\nFormat settings, ReFrames        : 5 frames\nCodec ID                         : avc1\nCodec ID/Info                    : Advanced Video Coding\nDuration                         : 2h 26mn\nBit rate                         : 515 Kbps\nMaximum bit rate                 : 1 489 Kbps\nWidth                            : 608 pixels\nHeight                           : 256 pixels\nDisplay aspect ratio             : 2.40:1\nFrame rate mode                  : Constant\nFrame rate                       : 29.970 fps\nColor space                      : YUV\nChroma subsampling               : 4:2:0\nBit depth                        : 8 bits\nScan type                        : Progressive\nBits/(Pixel*Frame)               : 0.110\nStream size                      : 540 MiB (77%)\n\n\nAudio\nID                               : 2\nFormat                           : MPEG Audio\nFormat version                   : Version 1\nFormat profile                   : Layer 3\nMode                             : Joint stereo\nMode extension                   : MS Stereo\nCodec ID                         : 6B\nDuration                         : 2h 26mn\nBit rate mode                    : Variable\nBit rate                         : 150 Kbps\nMinimum bit rate                 : 32.0 Kbps\nMaximum bit rate                 : 273 Kbps\nChannel(s)                       : 2 channels\nSampling rate                    : 48.0 KHz\nCompression mode                 : Lossy\nStream size                      : 158 MiB (22%)\n\n\nscreenshots:\n &lt;a href=&quot;\nhttp://padamhosting.com/out.php/i123951_Folder1.jpg&quot; rel=&quot;nofollow&quot; target=&quot;_NEW&quot;&gt;\nhttp://padamhosting.com/out.php/i123951_Folder1.jpg&lt;/a&gt;\n &lt;a href=&quot;\nhttp://padamhosting.com/out.php/i123952_11.jpg&quot; rel=&quot;nofollow&quot; target=&quot;_NEW&quot;&gt;\nhttp://padamhosting.com/out.php/i123952_11.jpg&lt;/a&gt;\n &lt;a href=&quot;\nhttp://padamhosting.com/out.php/i123953_51.jpg&quot; rel=&quot;nofollow&quot; target=&quot;_NEW&quot;&gt;\nhttp://padamhosting.com/out.php/i123953_51.jpg&lt;/a&gt;\n &lt;a href=&quot;\nhttp://padamhosting.com/out.php/i123955_61.jpg&quot; rel=&quot;nofollow&quot; target=&quot;_NEW&quot;&gt;\nhttp://padamhosting.com/out.php/i123955_61.jpg&lt;/a&gt;\n\nthumbnails:\n &lt;a href=&quot;\nhttp://padamhosting.com/out.php/i123956_honeymoon2010dvdripwwwm.jpg&quot; rel=&quot;nofollow&quot; target=&quot;_NEW&quot;&gt;\nhttp://padamhosting.com/out.php/i123956_honeymoon2010dvdripwwwm.jpg&lt;/a&gt;\n\n","torrent":{"xt":"urn:btih:26e6abed7e5c2f1b15b381053f0b3dacde73dbc2","amp;dn":"Honey+Moon+%282011%29+1CD.DVDRip+Malayalam+Movie+%2818%2B%29+-+OP","amp;tr":["udp%3A%2F%2Ftracker.openbittorrent.com%3A80","udp%3A%2F%2Fopen.demonii.com%3A1337","udp%3A%2F%2Ftracker.coppersurfer.tk%3A6969","udp%3A%2F%2Fexodus.desync.com%3A6969"],"infoHash":"26e6abed7e5c2f1b15b381053f0b3dacde73dbc2","infoHashBuffer":{"type":"Buffer","data":[38,230,171,237,126,92,47,27,21,179,129,5,63,11,61,172,222,115,219,194]},"announce":[],"urlList":[]}}